<svg width="66" height="66" viewBox="0 0 66 66" fill="none" xmlns="http://www.w3.org/2000/svg">
<rect width="66" height="66" rx="10.1852" fill="#0D111A"/>
<g clip-path="url(#clip0_2_17)">
<path d="M36.3098 12.256C34.3386 11.1245 31.9099 11.1245 29.9386 12.256L16.6302 19.8954C14.6589 21.0271 13.4446 23.1183 13.4446 25.3814V29.635L19.839 33.3055V26.6139C19.839 25.8595 20.2438 25.1624 20.9009 24.7852L39.5187 14.098L36.3098 12.256Z" fill="white"/>
<path d="M34.1169 47.8002C33.4621 48.1786 32.6552 48.1786 32.0003 47.8002L13.4446 37.074V40.7714C13.4446 43.0428 14.6549 45.1416 16.6196 46.2773L29.8836 53.9445C31.8483 55.0802 34.2689 55.0802 36.2336 53.9445L39.9261 51.8102V44.4422L34.1169 47.8002Z" fill="white"/>
<path d="M45.8918 17.7222L39.5186 21.3965L45.3279 24.7457C45.9828 25.1233 46.3862 25.821 46.3862 26.5762V47.9722L49.5844 46.1283C51.5491 44.9957 52.7593 42.9022 52.7593 40.6368V25.3425C52.7593 23.0771 51.549 20.9837 49.5843 19.851L45.8918 17.7222Z" fill="white"/>
</g>
<defs>
<clipPath id="clip0_2_17">
<rect width="39.3148" height="43.3889" fill="white" transform="translate(13.4446 11.4074)"/>
</clipPath>
</defs>
</svg>
