<svg width="39" height="50" viewBox="0 0 39 50" fill="none" xmlns="http://www.w3.org/2000/svg">
<path d="M19.6484 49.6172C20.4609 49.6172 21.1406 49.3516 21.6875 48.8203C22.2344 48.2891 22.8594 47.5469 23.5625 46.5938L37.3672 28.1953C37.7578 27.6484 38.0469 27.125 38.2344 26.625C38.4375 26.1094 38.5391 25.5938 38.5391 25.0781C38.5391 24.5625 38.4375 24.0469 38.2344 23.5312C38.0469 23.0156 37.7578 22.4922 37.3672 21.9609L23.5625 3.53906C22.8594 2.58594 22.2344 1.85156 21.6875 1.33594C21.1406 0.804687 20.4609 0.539062 19.6484 0.539062C18.8359 0.539062 18.1562 0.804687 17.6094 1.33594C17.0781 1.85156 16.4609 2.58594 15.7578 3.53906L1.95312 21.9609C1.54688 22.4922 1.25 23.0156 1.0625 23.5312C0.875 24.0469 0.78125 24.5625 0.78125 25.0781C0.78125 25.5938 0.875 26.1094 1.0625 26.625C1.25 27.125 1.54688 27.6484 1.95312 28.1953L15.7578 46.5938C16.4609 47.5469 17.0781 48.2891 17.6094 48.8203C18.1562 49.3516 18.8359 49.6172 19.6484 49.6172Z" fill="#47569B"/>
</svg>
