<svg width="50" height="50" viewBox="0 0 50 50" fill="none" xmlns="http://www.w3.org/2000/svg">
<path d="M24.6406 47.1562C26.3125 47.1562 27.875 46.6016 29.3281 45.4922C30.7812 44.3828 32.0625 42.8359 33.1719 40.8516C34.2812 38.8516 35.1484 36.5156 35.7734 33.8438C36.4141 31.1562 36.7344 28.25 36.7344 25.125C36.7344 22 36.4219 19.0938 35.7969 16.4062C35.1719 13.7187 34.3047 11.375 33.1953 9.375C32.0859 7.35938 30.7969 5.79687 29.3281 4.6875C27.875 3.57813 26.3125 3.02344 24.6406 3.02344C22.9688 3.02344 21.3984 3.57813 19.9297 4.6875C18.4609 5.79687 17.1797 7.35938 16.0859 9.375C14.9922 11.375 14.125 13.7187 13.4844 16.4062C12.8594 19.0938 12.5469 22 12.5469 25.125C12.5469 28.25 12.8594 31.1562 13.4844 33.8438C14.125 36.5156 14.9922 38.8516 16.0859 40.8516C17.1953 42.8359 18.4766 44.3828 19.9297 45.4922C21.3984 46.6016 22.9688 47.1562 24.6406 47.1562ZM24.6406 6.23438C25.75 6.23438 26.8203 6.74219 27.8516 7.75781C28.8828 8.77344 29.8047 10.1641 30.6172 11.9297C31.4297 13.6953 32.0703 15.7109 32.5391 17.9766C33.0078 20.2422 33.2422 22.625 33.2422 25.125C33.2422 27.6094 33.0078 29.9766 32.5391 32.2266C32.0703 34.4766 31.4297 36.4844 30.6172 38.25C29.8047 40 28.8828 41.3828 27.8516 42.3984C26.8203 43.4297 25.75 43.9453 24.6406 43.9453C23.5312 43.9453 22.4609 43.4297 21.4297 42.3984C20.3984 41.3828 19.4766 40 18.6641 38.25C17.8516 36.4844 17.2109 34.4766 16.7422 32.2266C16.2734 29.9766 16.0391 27.6094 16.0391 25.125C16.0391 22.625 16.2734 20.2422 16.7422 17.9766C17.2109 15.7109 17.8516 13.6953 18.6641 11.9297C19.4766 10.1641 20.3984 8.77344 21.4297 7.75781C22.4609 6.74219 23.5312 6.23438 24.6406 6.23438ZM22.9297 3.35156V46.7344H26.3516V3.35156H22.9297ZM24.6406 32.8594C22.1719 32.8594 19.8281 33.0625 17.6094 33.4688C15.3906 33.8594 13.4062 34.4219 11.6562 35.1562C9.90625 35.8906 8.49219 36.75 7.41406 37.7344L10.0391 39.9141C11.0391 39.1484 12.2734 38.5 13.7422 37.9688C15.2109 37.4219 16.8672 37.0078 18.7109 36.7266C20.5547 36.4453 22.5312 36.3047 24.6406 36.3047C26.75 36.3047 28.7266 36.4453 30.5703 36.7266C32.4141 37.0078 34.0703 37.4219 35.5391 37.9688C37.0078 38.5 38.2344 39.1484 39.2188 39.9141L41.8438 37.7344C40.7812 36.75 39.375 35.8906 37.625 35.1562C35.875 34.4219 33.8906 33.8594 31.6719 33.4688C29.4531 33.0625 27.1094 32.8594 24.6406 32.8594ZM46.0156 23.3438H3.26562V26.7891H46.0156V23.3438ZM24.6406 17.4141C27.1094 17.4141 29.4531 17.2188 31.6719 16.8281C33.8906 16.4219 35.875 15.8516 37.625 15.1172C39.375 14.3828 40.7812 13.5234 41.8438 12.5391L39.2188 10.3594C38.2344 11.125 37.0078 11.7813 35.5391 12.3281C34.0703 12.8594 32.4141 13.2656 30.5703 13.5469C28.7266 13.8281 26.75 13.9688 24.6406 13.9688C22.5312 13.9688 20.5547 13.8281 18.7109 13.5469C16.8672 13.2656 15.2109 12.8594 13.7422 12.3281C12.2734 11.7813 11.0391 11.125 10.0391 10.3594L7.41406 12.5391C8.49219 13.5234 9.90625 14.3828 11.6562 15.1172C13.4062 15.8516 15.3906 16.4219 17.6094 16.8281C19.8281 17.2188 22.1719 17.4141 24.6406 17.4141ZM24.6406 49.5234C27.9844 49.5234 31.1328 48.8828 34.0859 47.6016C37.0391 46.3359 39.6328 44.5781 41.8672 42.3281C44.1172 40.0781 45.8828 37.4844 47.1641 34.5469C48.4453 31.5938 49.0859 28.4375 49.0859 25.0781C49.0859 21.7344 48.4453 18.5938 47.1641 15.6562C45.8828 12.7031 44.1172 10.1016 41.8672 7.85156C39.6328 5.60156 37.0312 3.84375 34.0625 2.57812C31.1094 1.29687 27.9609 0.65625 24.6172 0.65625C21.2734 0.65625 18.125 1.29687 15.1719 2.57812C12.2188 3.84375 9.61719 5.60156 7.36719 7.85156C5.13281 10.1016 3.375 12.7031 2.09375 15.6562C0.828125 18.5938 0.195312 21.7344 0.195312 25.0781C0.195312 28.4375 0.828125 31.5938 2.09375 34.5469C3.375 37.4844 5.14062 40.0781 7.39062 42.3281C9.64062 44.5781 12.2422 46.3359 15.1953 47.6016C18.1484 48.8828 21.2969 49.5234 24.6406 49.5234ZM24.6406 45.3516C21.875 45.3516 19.2656 44.8203 16.8125 43.7578C14.375 42.6953 12.2188 41.2344 10.3438 39.375C8.48438 37.5156 7.02344 35.3672 5.96094 32.9297C4.91406 30.4766 4.39062 27.8594 4.39062 25.0781C4.39062 22.3125 4.91406 19.7109 5.96094 17.2734C7.02344 14.8203 8.48438 12.6641 10.3438 10.8047C12.2031 8.94531 14.3516 7.48437 16.7891 6.42188C19.2422 5.35938 21.8516 4.82812 24.6172 4.82812C27.3984 4.82812 30.0078 5.35938 32.4453 6.42188C34.8828 7.48437 37.0391 8.94531 38.9141 10.8047C40.7891 12.6641 42.25 14.8203 43.2969 17.2734C44.3594 19.7109 44.8906 22.3125 44.8906 25.0781C44.8906 27.8594 44.3594 30.4766 43.2969 32.9297C42.25 35.3672 40.7891 37.5156 38.9141 39.375C37.0547 41.2344 34.8984 42.6953 32.4453 43.7578C30.0078 44.8203 27.4062 45.3516 24.6406 45.3516Z" fill="#1AA302"/>
</svg>
