<svg width="34" height="47" viewBox="0 0 34 47" fill="none" xmlns="http://www.w3.org/2000/svg">
<path d="M5.69531 46.8828H28.6641C30.2734 46.8828 31.4766 46.4688 32.2734 45.6406C33.0703 44.8125 33.4688 43.5156 33.4688 41.75V24.0312C33.4688 22.2969 33.0703 21.0234 32.2734 20.2109C31.4766 19.3828 30.2734 18.9688 28.6641 18.9688L6.04688 18.9922C4.4375 18.9922 3.17188 19.4062 2.25 20.2344C1.34375 21.0469 0.890625 22.3125 0.890625 24.0312V41.75C0.890625 43.5156 1.28906 44.8125 2.08594 45.6406C2.89844 46.4688 4.10156 46.8828 5.69531 46.8828ZM4.85156 20.7266H9.82031V12.875C9.82031 11.1406 10.1484 9.67187 10.8047 8.46875C11.4766 7.25 12.3672 6.32813 13.4766 5.70312C14.6016 5.07812 15.8359 4.76562 17.1797 4.76562C18.5391 4.76562 19.7734 5.07812 20.8828 5.70312C21.9922 6.32813 22.875 7.25 23.5312 8.46875C24.2031 9.67187 24.5391 11.1406 24.5391 12.875V20.7266H29.4844V13.2734C29.4844 11.0547 29.1406 9.10937 28.4531 7.4375C27.7812 5.76563 26.8594 4.38281 25.6875 3.28906C24.5312 2.19531 23.2109 1.375 21.7266 0.828125C20.2578 0.28125 18.7422 0.0078125 17.1797 0.0078125C15.6172 0.0078125 14.1016 0.28125 12.6328 0.828125C11.1641 1.375 9.84375 2.19531 8.67188 3.28906C7.51562 4.38281 6.58594 5.76563 5.88281 7.4375C5.19531 9.10937 4.85156 11.0547 4.85156 13.2734V20.7266Z" fill="#525152"/>
</svg>
