<svg width="39" height="43" viewBox="0 0 39 43" fill="none" xmlns="http://www.w3.org/2000/svg">
<path fill-rule="evenodd" clip-rule="evenodd" d="M22.6548 0.879867L25.8375 2.71078L7.38911 13.3426C7.06795 13.5256 6.80135 13.7902 6.61659 14.1095C6.43182 14.4287 6.33551 14.7911 6.3375 15.1596V21.8175L0 18.1626V13.9043C0.00130891 12.7994 0.293255 11.7141 0.846767 10.7565C1.40028 9.79886 2.19604 9.00235 3.15482 8.44625L16.3452 0.817449C17.3085 0.271308 18.4 -0.0106571 19.5085 0.000308027C20.6169 0.0112731 21.7026 0.314776 22.6548 0.879867V0.879867ZM20.5516 36.0972L26.325 32.7683V40.0711L22.6548 42.1517C21.697 42.7073 20.6084 43 19.5 43C18.3916 43 17.303 42.7073 16.3452 42.1517L3.15482 34.5229C2.21016 33.9752 1.42344 33.194 0.870762 32.2548C0.318083 31.3156 0.018157 30.2503 0 29.1619V25.4654L18.4484 36.0972C18.7677 36.2824 19.1305 36.38 19.5 36.38C19.8695 36.38 20.2323 36.2824 20.5516 36.0972V36.0972ZM35.873 8.47399L32.175 6.35874L25.8375 10.0136L31.6109 13.3426C31.9321 13.5256 32.1986 13.7902 32.3834 14.1095C32.5682 14.4287 32.6645 14.7911 32.6625 15.1596V36.4232L35.8452 34.5922C36.7999 34.0385 37.5931 33.2464 38.1463 32.2941C38.6996 31.3417 38.9938 30.2621 39 29.1619V13.9043C38.9938 12.8041 38.6996 11.7245 38.1463 10.7722C37.5931 9.81985 36.7999 9.02771 35.8452 8.47399H35.873Z" fill="black"/>
</svg>
