<svg width="58" height="48" viewBox="0 0 58 48" fill="none" xmlns="http://www.w3.org/2000/svg">
<path d="M0.976562 39.5703C0.976562 42.0859 1.625 43.9922 2.92188 45.2891C4.21875 46.6016 6.125 47.2578 8.64062 47.2578H37.4219C39.9531 47.2578 41.875 46.6094 43.1875 45.3125C44.5 44.0156 45.1562 42.125 45.1562 39.6406V30.6172C45.1562 30.3672 45.2344 30.2109 45.3906 30.1484C45.5625 30.0703 45.75 30.1094 45.9531 30.2656C46.3594 30.5312 46.7812 30.7734 47.2188 30.9922C47.6562 31.1953 48.125 31.3594 48.625 31.4844C49.1406 31.6094 49.6797 31.6719 50.2422 31.6719C51.6797 31.6719 52.9609 31.3438 54.0859 30.6875C55.2266 30.0312 56.125 29.1328 56.7812 27.9922C57.4375 26.8516 57.7656 25.5547 57.7656 24.1016C57.7656 22.6641 57.4375 21.375 56.7812 20.2344C56.125 19.0938 55.2266 18.1953 54.0859 17.5391C52.9609 16.8828 51.6797 16.5547 50.2422 16.5547C49.6797 16.5547 49.1406 16.6172 48.625 16.7422C48.125 16.8672 47.6562 17.0391 47.2188 17.2578C46.7812 17.4609 46.3594 17.6953 45.9531 17.9609C45.75 18.1172 45.5625 18.1641 45.3906 18.1016C45.2344 18.0234 45.1562 17.8594 45.1562 17.6094V8.46875C45.1562 5.96875 44.5 4.07813 43.1875 2.79688C41.875 1.5 39.9531 0.851562 37.4219 0.851562H8.64062C6.125 0.851562 4.21875 1.50781 2.92188 2.82031C1.625 4.11719 0.976562 6.02344 0.976562 8.53906V18.7109C0.976562 19.5859 1.25781 20.2734 1.82031 20.7734C2.39844 21.2578 3.0625 21.5 3.8125 21.5C4.26562 21.5 4.71875 21.4062 5.17188 21.2188C5.625 21.0156 6.03906 20.7031 6.41406 20.2812C6.74219 19.9531 7.13281 19.5938 7.58594 19.2031C8.05469 18.7969 8.61719 18.4531 9.27344 18.1719C9.94531 17.8906 10.75 17.75 11.6875 17.75C12.8594 17.75 13.9219 18.0391 14.875 18.6172C15.8438 19.1797 16.6172 19.9531 17.1953 20.9375C17.7734 21.9062 18.0625 22.9922 18.0625 24.1953C18.0781 25.3828 17.7969 26.4688 17.2188 27.4531C16.6562 28.4219 15.8828 29.1953 14.8984 29.7734C13.9297 30.3359 12.8594 30.6172 11.6875 30.6172C10.75 30.6172 9.94531 30.4766 9.27344 30.1953C8.61719 29.9141 8.05469 29.5781 7.58594 29.1875C7.13281 28.7812 6.74219 28.4062 6.41406 28.0625C6.03906 27.6719 5.625 27.375 5.17188 27.1719C4.71875 26.9688 4.26562 26.8672 3.8125 26.8672C3.0625 26.8672 2.39844 27.1172 1.82031 27.6172C1.25781 28.1016 0.976562 28.7891 0.976562 29.6797V39.5703Z" fill="#1D7DE5"/>
</svg>
