<svg width="50" height="55" viewBox="0 0 50 55" fill="none" xmlns="http://www.w3.org/2000/svg">
<path d="M25.1875 31.625C25.7031 31.625 26.2188 31.5312 26.7344 31.3438C27.2656 31.1562 27.8594 30.875 28.5156 30.5L46.6328 20C47.6641 19.3906 48.4219 18.7969 48.9062 18.2188C49.4062 17.625 49.6562 16.9141 49.6562 16.0859C49.6562 15.2578 49.4062 14.5547 48.9062 13.9766C48.4219 13.3828 47.6641 12.7891 46.6328 12.1953L28.5156 1.69531C27.8594 1.30469 27.2656 1.01562 26.7344 0.828125C26.2188 0.640625 25.7031 0.546875 25.1875 0.546875C24.6562 0.546875 24.125 0.640625 23.5938 0.828125C23.0781 1.01562 22.4922 1.30469 21.8359 1.69531L3.71875 12.1953C2.6875 12.7891 1.92188 13.3828 1.42188 13.9766C0.9375 14.5547 0.695312 15.2578 0.695312 16.0859C0.695312 16.9141 0.9375 17.625 1.42188 18.2188C1.92188 18.7969 2.6875 19.3906 3.71875 20L21.8359 30.5C22.4922 30.875 23.0781 31.1562 23.5938 31.3438C24.125 31.5312 24.6562 31.625 25.1875 31.625ZM25.1875 43.2969C25.6719 43.2969 26.1406 43.1953 26.5938 42.9922C27.0625 42.7734 27.6016 42.4922 28.2109 42.1484L47.6172 30.7344C48.2891 30.3438 48.7969 29.8984 49.1406 29.3984C49.4844 28.8828 49.6562 28.3203 49.6562 27.7109C49.6562 27.0703 49.4922 26.5156 49.1641 26.0469C48.8359 25.5625 48.4375 25.1797 47.9688 24.8984L26.8281 37.1562C26.5 37.3438 26.2031 37.4922 25.9375 37.6016C25.6719 37.7109 25.4219 37.7656 25.1875 37.7656C24.9375 37.7656 24.6797 37.7109 24.4141 37.6016C24.1484 37.4922 23.8516 37.3438 23.5234 37.1562L2.38281 24.8984C1.92969 25.1797 1.53125 25.5625 1.1875 26.0469C0.859375 26.5156 0.695312 27.0703 0.695312 27.7109C0.695312 28.3203 0.867188 28.8828 1.21094 29.3984C1.57031 29.8984 2.07812 30.3438 2.73438 30.7344L22.1406 42.1484C22.75 42.4922 23.2812 42.7734 23.7344 42.9922C24.2031 43.1953 24.6875 43.2969 25.1875 43.2969ZM25.1875 54.3359C25.6719 54.3359 26.1406 54.2344 26.5938 54.0312C27.0625 53.8281 27.6016 53.5469 28.2109 53.1875L47.6172 41.7734C48.2734 41.3984 48.7734 40.9531 49.1172 40.4375C49.4766 39.9219 49.6562 39.3516 49.6562 38.7266C49.6562 38.1172 49.4922 37.5703 49.1641 37.0859C48.8359 36.6016 48.4375 36.2109 47.9688 35.9141L26.8281 48.1953C26.5 48.3828 26.2031 48.5312 25.9375 48.6406C25.6719 48.75 25.4219 48.8047 25.1875 48.8047C24.9375 48.8047 24.6797 48.75 24.4141 48.6406C24.1484 48.5312 23.8516 48.3828 23.5234 48.1953L2.38281 35.9141C1.92969 36.2109 1.53125 36.6016 1.1875 37.0859C0.859375 37.5703 0.695312 38.1172 0.695312 38.7266C0.695312 39.3516 0.867188 39.9219 1.21094 40.4375C1.57031 40.9531 2.07812 41.3984 2.73438 41.7734L22.1406 53.1875C22.75 53.5469 23.2812 53.8281 23.7344 54.0312C24.2031 54.2344 24.6875 54.3359 25.1875 54.3359Z" fill="#F97F2A"/>
</svg>
